<?xml version="1.0" standalone="no"?><!DOCTYPE svg PUBLIC "-//W3C//DTD SVG 1.1//EN" "http://www.w3.org/Graphics/SVG/1.1/DTD/svg11.dtd"><svg t="1546856574794" class="icon" style="" viewBox="0 0 1024 1024" version="1.1" xmlns="http://www.w3.org/2000/svg" p-id="1211" xmlns:xlink="http://www.w3.org/1999/xlink" width="400" height="400"><defs><style type="text/css"></style></defs><path d="M882.176 66.56H141.824C99.84 66.56 66.56 99.84 66.56 141.824v740.864c0 41.472 33.28 75.264 75.264 75.264h740.864c41.472 0 75.264-33.28 75.264-75.264V141.824c1.024-41.984-33.792-75.264-75.776-75.264z m-517.12 455.68V145.92h527.36V522.24h-527.36z m231.936 66.56v303.616H365.056V588.8h231.936zM298.496 145.92V522.24H133.12V145.92h165.376zM133.12 882.176V588.8h165.376v303.616H141.824c-5.12 0-8.704-5.12-8.704-10.24z m749.056 10.24h-218.624V588.8H890.88v293.376c1.536 5.12-3.584 10.24-8.704 10.24z" p-id="1212" fill="#41B883"></path></svg>